<svg xmlns="http://www.w3.org/2000/svg" width="1180" height="161.501" viewBox="0 0 1180 161.501">
  <g id="bg_bi" transform="translate(-274.504 -138.735)" opacity="0.1">
    <path id="Path_19" data-name="Path 19" d="M369.228,138.735v54.129H333.139V138.735H274.5V296.6h58.635v-54.12h36.089V296.6h58.635V138.735Z" transform="translate(0 0)" fill="#fff"/>
    <path id="Path_20" data-name="Path 20" d="M353.056,138.735H294.43V296.6h29.313l29.313-51.867Z" transform="translate(154.739 0)" fill="#fff"/>
    <path id="Path_21" data-name="Path 21" d="M327.087,150.827l-29.313,51.868H398.31V150.827Z" transform="translate(180.708 93.903)" fill="#002b68"/>
    <path id="Path_22" data-name="Path 22" d="M432.488,169.029h-82.1v30.759h71.7V227.7h-71.7v38.57h83.53v30.286H314.894V138.743H432.488Z" transform="translate(313.662 0.061)" fill="#fff"/>
    <path id="Path_23" data-name="Path 23" d="M408.453,187.8c-1.9-10.931-9.511-17.111-20.915-17.111-15.445,0-23.773,11.641-23.773,32.565,0,22.1,8.328,33.749,24.01,33.749,12.115,0,18.776-6.18,21.389-19.732l32.8,1.666c-4.751,29-24.72,45.389-55.137,45.389-34.94,0-57.048-23.282-57.048-60.125,0-38.035,21.871-60.844,58.232-60.844,29.944,0,50.386,17.111,52.525,44.443Z" transform="translate(429.261 35.901)" fill="#fff"/>
    <path id="Path_24" data-name="Path 24" d="M465.819,204.675c0,34.7-25.675,59.66-61.089,59.66-35.65,0-60.844-24.956-60.844-60.607,0-35.414,25.193-60.37,60.844-60.37,36.361,0,61.089,24.72,61.089,61.317m-87.947-.947c0,21.634,9.739,33.757,27.1,33.757,16.874,0,26.859-12.123,26.859-33.047,0-22.1-9.511-34.213-27.1-34.213-17.12,0-26.858,12.114-26.858,33.5" transform="translate(538.806 35.901)" fill="#fff"/>
    <path id="Path_25" data-name="Path 25" d="M402.041,213.7c2.139,15.691,11.4,24.255,25.9,24.255,9.029,0,15.454-3.1,19.968-10.221h34.222c-6.417,22.327-27.805,36.589-55.146,36.589-35.405,0-58.941-24.237-58.941-60.361,0-35.9,24.018-60.607,58.714-60.607,24.246,0,42.54,12.114,51.1,33.748,4.041,9.984,5.7,20.679,5.7,36.6Zm46.818-23.764c-1.429-13.552-9.274-20.915-22.335-20.915-13.079,0-21.634,7.363-24.237,20.915Z" transform="translate(726.436 35.909)" fill="#fff"/>
    <path id="Path_26" data-name="Path 26" d="M461.4,187.8c-1.9-10.931-9.511-17.111-20.916-17.111-15.445,0-23.773,11.641-23.773,32.565,0,22.1,8.328,33.749,24.01,33.749,12.114,0,18.776-6.18,21.389-19.732l32.8,1.666c-4.751,29-24.72,45.389-55.137,45.389-34.941,0-57.048-23.282-57.048-60.125,0-38.035,21.871-60.844,58.231-60.844,29.944,0,50.386,17.111,52.525,44.443Z" transform="translate(840.454 35.901)" fill="#fff"/>
    <path id="Path_27" data-name="Path 27" d="M430.922,191.969c9.467-8.985,18.452-12.772,30.286-12.772,11.6,0,22,4.251,29.339,12.3s10.168,17.751,10.168,34.792v70.267H467.125V232.432c0-10.65-.956-14.9-3.787-18.925-2.84-3.8-7.574-5.917-13.245-5.917a20.934,20.934,0,0,0-14.674,5.68c-3.787,4.023-4.5,7.337-4.5,19.162v64.122h-33.6V138.743h33.6Z" transform="translate(953.788 0.062)" fill="#fff"/>
    <path id="Path_28" data-name="Path 28" d="M410.472,179.048V138.743H376.864v40.305H358.727v25.71h18.137V296.6h33.608v-91.84h20.591v-25.71Z" transform="translate(654.06 0.058)" fill="#fff"/>
  </g>
</svg>
