<svg id="logo_black" xmlns="http://www.w3.org/2000/svg" width="153.264" height="24.067" viewBox="0 0 153.264 24.067">
  <path id="패스_33" data-name="패스 33" d="M698.415,463.664v6.609h-4.406v-6.609h-7.161v19.278h7.161v-6.61h4.406v6.61h7.161V463.664Z" transform="translate(-686.848 -463.664)"/>
  <path id="패스_34" data-name="패스 34" d="M707.33,463.664h-7.159v19.278h3.58l3.58-6.335Z" transform="translate(-678.842 -463.664)"/>
  <path id="패스_35" data-name="패스 35" d="M705.987,471.749l-3.58,6.335h12.277v-6.335Z" transform="translate(-677.499 -458.806)" fill="#00a8ea"/>
  <path id="패스_36" data-name="패스 36" d="M740.548,474.2a7.411,7.411,0,1,1-7.423-7.454,7.088,7.088,0,0,1,7.423,7.454m-10.689-.115c0,2.629,1.185,4.1,3.295,4.1,2.051,0,3.264-1.474,3.264-4.017,0-2.688-1.156-4.159-3.293-4.159-2.081,0-3.266,1.471-3.266,4.073" transform="translate(-663.485 -461.81)"/>
  <rect id="사각형_29" data-name="사각형 29" width="4.103" height="19.27" transform="translate(79)"/>
  <path id="패스_37" data-name="패스 37" d="M754.843,467.045h-4.1v-3.38h4.1Zm0,15.889h-4.1V468.98h4.1Z" transform="translate(-648.454 -463.663)"/>
  <path id="패스_38" data-name="패스 38" d="M759.3,467.137v1.358c1.5-1.386,2.369-1.763,3.813-1.763,3.034,0,4.883,2.022,4.883,5.317v9.042h-4.1v-7.6a4.138,4.138,0,0,0-.432-2.485,1.944,1.944,0,0,0-1.676-.809,2.313,2.313,0,0,0-1.763.751,3.093,3.093,0,0,0-.607,2.312v7.829h-4.1V467.137Z" transform="translate(-645.708 -461.82)"/>
  <path id="패스_39" data-name="패스 39" d="M778.6,467.213v12.538c0,2.283-.317,3.293-1.3,4.247a7.745,7.745,0,0,1-5.576,1.878c-3.9,0-6.24-1.59-6.529-4.449h4.246c.29.866,1.1,1.3,2.456,1.3a3.14,3.14,0,0,0,1.935-.549c.607-.491.781-1.012.781-2.427v-.924a4.909,4.909,0,0,1-3.756,1.5c-3.669,0-6.3-2.8-6.3-6.73s2.659-6.849,6.184-6.849a4.471,4.471,0,0,1,4.073,2.168l-.086-1.705Zm-10.14,6.327c0,2.051,1.242,3.468,3.091,3.468,1.907,0,3.092-1.358,3.092-3.525,0-2.051-1.242-3.41-3.092-3.41s-3.091,1.388-3.091,3.468" transform="translate(-640.153 -461.81)"/>
  <path id="패스_40" data-name="패스 40" d="M783.216,471.316c-.174-1.041-1.012-1.59-2.371-1.59-1.185,0-1.964.463-1.964,1.156,0,.52.405.781,1.7,1.069l2.573.549a5.622,5.622,0,0,1,3.176,1.358,3.891,3.891,0,0,1,1.042,2.8c0,2.947-2.4,4.8-6.269,4.8s-6.271-1.82-6.5-4.912h3.842c.234,1.329,1.1,1.936,2.747,1.936,1.3,0,2.135-.52,2.135-1.358,0-.664-.463-1.012-1.559-1.271l-2.544-.576c-3.059-.666-4.247-1.791-4.247-4.017,0-2.8,2.225-4.508,5.952-4.508,3.583,0,5.75,1.618,6.125,4.566Z" transform="translate(-634.113 -461.81)"/>
  <path id="패스_41" data-name="패스 41" d="M718.2,474.613v8.32h-4.342V463.665H718.2v7.251h8.387v-7.251h4.342v19.269h-4.342v-8.32Z" transform="translate(-670.619 -463.663)"/>
  <path id="패스_42" data-name="패스 42" d="M750.754,463.665H750.4l-.027,6.532a5.788,5.788,0,0,0-4.1-1.513c-3.5,0-6.44,2.971-6.44,7.318,0,4.375,2.944,7.319,6.44,7.319a5.782,5.782,0,0,0,4.1-1.514v1.1h4.108V463.665ZM747.136,479.9c-2,0-3.463-1.558-3.463-3.9,0-2.307,1.46-3.893,3.463-3.893a3.914,3.914,0,0,1,0,7.789" transform="translate(-655.011 -463.663)"/>
</svg>
