<svg xmlns="http://www.w3.org/2000/svg" width="153.264" height="20.977" viewBox="0 0 153.264 20.977">
  <g id="logo_black" transform="translate(-274.504 -138.735)">
    <path id="패스_46" data-name="패스 46" d="M286.808,138.735v7.031H282.12v-7.031H274.5v20.5h7.616V152.21h4.687v7.029h7.616v-20.5Z" transform="translate(0 0)"/>
    <path id="패스_47" data-name="패스 47" d="M302.045,138.735H294.43v20.5h3.807l3.807-6.737Z" transform="translate(2.761 0)"/>
    <path id="패스_48" data-name="패스 48" d="M301.581,150.827l-3.807,6.737h13.058v-6.737Z" transform="translate(3.224 1.675)" fill="#00a8ea"/>
    <path id="패스_49" data-name="패스 49" d="M330.168,142.677H319.5v4h9.312V150.3H319.5v5.01h10.849v3.934H314.894v-20.5h15.274Z" transform="translate(5.596 0.001)"/>
    <path id="패스_50" data-name="패스 50" d="M340,149.13a2.536,2.536,0,0,0-2.717-2.222c-2.006,0-3.088,1.512-3.088,4.23,0,2.87,1.082,4.383,3.118,4.383,1.573,0,2.439-.8,2.778-2.563l4.26.216c-.617,3.766-3.211,5.9-7.161,5.9-4.538,0-7.41-3.024-7.41-7.809,0-4.94,2.841-7.9,7.563-7.9,3.889,0,6.544,2.222,6.822,5.772Z" transform="translate(7.658 0.641)"/>
    <path id="패스_51" data-name="패스 51" d="M359.723,151.322a7.919,7.919,0,1,1-7.935-7.964,7.575,7.575,0,0,1,7.935,7.964M348.3,151.2c0,2.81,1.265,4.385,3.519,4.385,2.192,0,3.489-1.575,3.489-4.292,0-2.87-1.235-4.444-3.519-4.444-2.224,0-3.489,1.573-3.489,4.352" transform="translate(9.613 0.641)"/>
    <path id="패스_52" data-name="패스 52" d="M372.462,152.5a3.222,3.222,0,0,0,3.364,3.15,2.8,2.8,0,0,0,2.594-1.328h4.445c-.833,2.9-3.611,4.752-7.163,4.752-4.6,0-7.656-3.148-7.656-7.84,0-4.662,3.12-7.872,7.626-7.872a6.73,6.73,0,0,1,6.637,4.383,12.092,12.092,0,0,1,.74,4.753Zm6.081-3.087a2.706,2.706,0,0,0-2.9-2.717,3.01,3.01,0,0,0-3.148,2.717Z" transform="translate(12.96 0.641)"/>
    <path id="패스_53" data-name="패스 53" d="M392.947,149.13a2.536,2.536,0,0,0-2.717-2.222c-2.006,0-3.088,1.512-3.088,4.23,0,2.87,1.082,4.383,3.118,4.383,1.573,0,2.439-.8,2.778-2.563l4.26.216c-.617,3.766-3.211,5.9-7.161,5.9-4.538,0-7.41-3.024-7.41-7.809,0-4.94,2.841-7.9,7.563-7.9,3.889,0,6.544,2.222,6.822,5.772Z" transform="translate(14.994 0.641)"/>
    <path id="패스_54" data-name="패스 54" d="M401.687,145.656A5.3,5.3,0,0,1,405.621,144a5.051,5.051,0,0,1,3.811,1.6c.953,1.045,1.321,2.306,1.321,4.519v9.127h-4.363v-8.328a3.856,3.856,0,0,0-.492-2.458,2.08,2.08,0,0,0-1.72-.769,2.719,2.719,0,0,0-1.906.738c-.492.523-.584.953-.584,2.489v8.328h-4.364v-20.5h4.364Z" transform="translate(17.016 0.001)"/>
    <path id="패스_55" data-name="패스 55" d="M365.448,143.978v-5.235h-4.365v5.235h-2.356v3.339h2.356v11.929h4.365V147.317h2.674v-3.339Z" transform="translate(11.669 0.001)"/>
  </g>
</svg>
