<svg xmlns="http://www.w3.org/2000/svg" width="128.019" height="24.067" viewBox="0 0 128.019 24.067">
  <g id="logo" transform="translate(-587.186 -221.405)">
    <path id="패스_11" data-name="패스 11" d="M670.018,237.4H687.49v8.064h-3.543V240.2H670.018Zm6.594-10.236h2.526v-5.44h3.326v14.507h-3.326v-6.238h-2.526Zm7.5-5.741h3.378V236.4h-3.378Z" transform="translate(27.714 0.006)" fill="#fff"/>
    <path id="패스_12" data-name="패스 12" d="M601.607,221.4v8.241h-5.493V221.4h-8.928v24.035h8.928V237.2h5.493v8.24h8.927V221.4Z" transform="translate(0)" fill="#fff"/>
    <path id="패스_13" data-name="패스 13" d="M616.037,221.4h-8.926v24.035h4.463l4.463-7.9Z" transform="translate(6.667)" fill="#fff"/>
    <path id="패스_14" data-name="패스 14" d="M614.919,233.5l-4.463,7.9h15.306v-7.9Z" transform="translate(7.786 4.046)" fill="#00a8ea"/>
    <path id="패스_15" data-name="패스 15" d="M644.094,230.2H641.8v-.088c-.514-3.953-2.937-6.309-6.5-6.309-4.036,0-6.542,2.985-6.542,7.791s2.506,7.814,6.542,7.814c3.551,0,5.928-2.328,6.465-6.233h2.326v11.2h3.538V221.468h-3.538Zm-8.791,6.151c-1.57,0-2.433-1.69-2.433-4.756s.863-4.734,2.433-4.734c1.591,0,2.432,1.636,2.432,4.734s-.841,4.756-2.432,4.756" transform="translate(13.91 0.021)" fill="#fff"/>
    <rect id="사각형_21" data-name="사각형 21" width="3.59" height="23.969" transform="translate(662.99 221.488)" fill="#fff"/>
    <path id="패스_16" data-name="패스 16" d="M660.895,236.848v-5.98h-3.828v5.98h-8.019v3.147h22.885v-3.147Z" transform="translate(20.698 3.166)" fill="#fff"/>
    <path id="패스_17" data-name="패스 17" d="M650.562,222.494v3.094h14.272l-.183,2.995-14.261.081-.133.005.5,3.256,13.71-.306-.306,4.966,3.83.234.878-14.325Z" transform="translate(21.102 0.364)" fill="#fff"/>
    <path id="패스_18" data-name="패스 18" d="M671.232,231.956v-2.038h4.929v-2.869h-4.929v-1.9H677v-3h-9.354v13.015l10.275-.533v-3.017Z" transform="translate(26.922 0.247)" fill="#fff"/>
  </g>
</svg>
